<?xml version="1.0" encoding="iso-8859-1"?>
<!-- Generator: Adobe Illustrator 19.0.0, SVG Export Plug-In . SVG Version: 6.00 Build 0)  -->
<svg version="1.1" id="Capa_1" xmlns="http://www.w3.org/2000/svg" xmlns:xlink="http://www.w3.org/1999/xlink" x="0px" y="0px"
	 viewBox="0 0 512 512" style="enable-background:new 0 0 512 512;" xml:space="preserve">
<path style="fill:#E0E0E0;" d="M477.701,321.726v-24.095h-51.449v24.095c-15.906,9.184-25.707,26.144-25.724,44.503v137.196h102.897
	V366.229C503.408,347.87,493.607,330.909,477.701,321.726z"/>
<path style="fill:#D1D1D1;" d="M503.425,377.719c-19.182,49.236-50.934,92.573-92.093,125.706h92.093V377.719z"/>
<rect x="400.528" y="366.229" style="fill:#4398D1;" width="68.598" height="102.897"/>
<g>
	<rect x="400.528" y="426.252" style="fill:#215280;" width="42.874" height="17.15"/>
	<rect x="400.528" y="391.953" style="fill:#215280;" width="42.874" height="17.15"/>
</g>
<rect x="426.252" y="297.631" style="fill:#D1D1D1;" width="51.449" height="17.15"/>
<g>
	
		<rect x="452.017" y="-11.67" transform="matrix(-0.7071 0.7071 -0.7071 -0.7071 820.8943 -242.1195)" style="fill:#4398D1;" width="17.149" height="121.246"/>
	<polygon style="fill:#4398D1;" points="391.953,160.434 480.531,71.857 437.657,28.211 349.079,117.56 	"/>
</g>
<g>
	
		<rect x="-13.45" y="447.699" transform="matrix(-0.7071 0.7071 -0.7071 -0.7071 413.5575 741.2468)" style="fill:#215280;" width="133.422" height="17.149"/>
	
		<rect x="89.009" y="365.94" transform="matrix(-0.7071 0.7071 -0.7071 -0.7071 473.5653 596.3461)" style="fill:#215280;" width="48.533" height="60.623"/>
</g>
<polygon style="fill:#87CED9;" points="440.915,205.795 303.719,68.598 291.542,80.774 317.267,106.499 83.261,340.504 
	169.009,426.252 403.015,192.247 428.739,217.971 "/>
<polygon style="fill:#6EC1D4;" points="129.908,387.151 169.009,426.252 403.015,192.247 428.739,217.971 440.915,205.795 
	376.09,140.969 "/>
<rect x="409.103" y="263.331" style="fill:#4398D1;" width="85.748" height="34.299"/>
<rect x="460.551" y="263.331" style="fill:#3E8CC7;" width="34.299" height="34.299"/>
<g>
	
		<rect x="126.151" y="299.02" transform="matrix(-0.7071 0.7071 -0.7071 -0.7071 458.589 456.6181)" style="fill:#4398D1;" width="17.149" height="48.533"/>
	
		<rect x="156.101" y="266.589" transform="matrix(-0.7071 0.7071 -0.7071 -0.7071 482.4801 369.6859)" style="fill:#4398D1;" width="17.149" height="36.357"/>
	
		<rect x="194.792" y="230.519" transform="matrix(-0.7071 0.7071 -0.7071 -0.7071 527.3284 291.1434)" style="fill:#4398D1;" width="17.149" height="48.533"/>
	
		<rect x="224.695" y="198.008" transform="matrix(-0.7071 0.7071 -0.7071 -0.7071 551.0822 204.1067)" style="fill:#4398D1;" width="17.149" height="36.357"/>
	
		<rect x="263.366" y="161.882" transform="matrix(-0.7071 0.7071 -0.7071 -0.7071 595.8584 125.485)" style="fill:#4398D1;" width="17.149" height="48.533"/>
	
		<rect x="293.258" y="129.43" transform="matrix(-0.7071 0.7071 -0.7071 -0.7071 619.6364 38.5553)" style="fill:#4398D1;" width="17.149" height="36.357"/>
</g>
<path d="M12.176,509.513l83.947-84.033l15.349,15.435c3.336,3.361,8.763,3.387,12.125,0.051c0.017-0.017,0.034-0.034,0.051-0.051
	l23.924-24.009l15.349,15.435c3.336,3.361,8.763,3.387,12.125,0.051c0.017-0.017,0.034-0.034,0.051-0.051l234.006-234.091
	l19.636,19.722l12.176-12.176l-25.724-25.724l-15.435-15.349l82.232-82.232l15.349,15.435l12.176-12.176L423.766,0l-12.176,12.176
	l15.435,15.349l-82.232,82.232l-15.349-15.435l-25.724-25.724l-12.176,12.176l19.722,19.636L77.173,334.416
	c-3.361,3.336-3.387,8.763-0.051,12.125c0.017,0.017,0.034,0.034,0.051,0.051l15.435,15.349l-24.009,23.924
	c-3.361,3.336-3.387,8.763-0.051,12.125c0.017,0.017,0.034,0.034,0.051,0.051l15.435,15.349L0,497.337L12.176,509.513z
	 M439.114,39.615l30.783,30.783l-82.232,82.232l-30.783-30.783L439.114,39.615z M117.56,318.296l28.211,28.297l12.176-12.176
	l-28.297-28.211l22.209-22.209l19.636,19.722l12.176-12.176l-19.722-19.636l22.209-22.209l28.211,28.297l12.176-12.176
	l-28.297-28.211l22.209-22.209l19.636,19.722l12.176-12.176l-19.722-19.636l22.209-22.209l28.211,28.297l12.176-12.176
	l-28.297-28.211l22.209-22.209l19.636,19.722l12.176-12.176l-19.722-19.636l22.209-22.209l73.657,73.657L169.009,414.162
	l-73.657-73.657L117.56,318.296z M104.698,374.032l30.783,30.783l-17.921,17.921l-30.783-30.783L104.698,374.032z"/>
<path d="M486.276,317.01v-10.804h8.575c4.733,0,8.575-3.841,8.575-8.575v-34.299c0-4.733-3.842-8.575-8.575-8.575h-85.748
	c-4.733,0-8.575,3.842-8.575,8.575v34.299c0,4.733,3.842,8.575,8.575,8.575h8.575v10.804
	c-16.103,11.216-25.716,29.592-25.724,49.219v137.196c0,4.733,3.842,8.575,8.575,8.575h102.897c4.733,0,8.575-3.841,8.575-8.575
	V366.229C511.991,346.601,502.379,328.225,486.276,317.01z M417.677,271.906h68.598v17.15h-68.598V271.906z M409.103,426.252v-17.15
	h34.299v-17.15h-34.299v-17.15h51.449v85.748h-51.449v-17.15h34.299v-17.15H409.103z M494.85,494.85h-85.748v-17.15h60.023
	c4.733,0,8.575-3.842,8.575-8.575V366.229c0-4.733-3.842-8.575-8.575-8.575h-59.08c2.435-12.013,9.895-22.406,20.494-28.554
	c2.641-1.526,4.27-4.33,4.287-7.374v-15.52h34.299v15.52c0.017,3.044,1.646,5.848,4.287,7.374
	c13.265,7.657,21.437,21.814,21.437,37.129V494.85z"/>
<g>
</g>
<g>
</g>
<g>
</g>
<g>
</g>
<g>
</g>
<g>
</g>
<g>
</g>
<g>
</g>
<g>
</g>
<g>
</g>
<g>
</g>
<g>
</g>
<g>
</g>
<g>
</g>
<g>
</g>
</svg>
